<?xml version="1.0" standalone="no"?>
<!DOCTYPE svg PUBLIC "-//W3C//DTD SVG 20010904//EN"
 "http://www.w3.org/TR/2001/REC-SVG-20010904/DTD/svg10.dtd">
<svg version="1.0" xmlns="http://www.w3.org/2000/svg"
 width="260.000000pt" height="260.000000pt" viewBox="0 0 260.000000 260.000000"
 preserveAspectRatio="xMidYMid meet">
<metadata>
Created by potrace 1.11, written by Peter Selinger 2001-2013
</metadata>
<g transform="translate(0.000000,260.000000) scale(0.100000,-0.100000)"
fill="#000000" stroke="none">
<path d="M62 2538 c-9 -9 -12 -80 -12 -259 l0 -246 71 -59 c77 -64 122 -102
178 -150 34 -29 193 -161 290 -242 25 -20 77 -64 115 -97 39 -33 108 -91 154
-129 45 -38 82 -72 82 -76 0 -8 -38 -57 -97 -123 -34 -39 -43 -45 -55 -35 -32
32 -120 88 -136 88 -27 0 -202 -180 -202 -207 0 -12 12 -37 28 -55 15 -18 38
-48 51 -66 l23 -34 -238 -239 c-131 -131 -244 -250 -252 -265 -10 -19 -13 -45
-9 -82 5 -50 11 -60 59 -109 29 -30 65 -61 80 -69 35 -18 92 -18 131 1 18 8
127 111 244 228 116 116 222 222 236 235 l25 24 38 -26 c22 -14 51 -35 66 -47
48 -39 69 -30 168 70 84 85 105 121 80 136 -13 8 -80 110 -80 122 0 10 63 66
146 129 l46 35 66 -55 c137 -112 136 -110 120 -126 -30 -30 -88 -120 -88 -137
0 -20 165 -189 191 -196 21 -6 58 13 119 60 24 18 46 33 49 33 4 0 105 -99
226 -221 258 -259 282 -279 339 -279 51 0 88 19 143 73 52 51 73 92 73 145 0
46 -29 91 -111 169 -30 28 -130 128 -223 221 l-170 171 27 38 c15 21 36 50 48
65 39 48 30 72 -67 169 -49 49 -97 89 -107 89 -16 0 -106 -57 -135 -87 -7 -7
-15 -13 -16 -13 -7 0 -136 159 -136 168 0 9 150 143 211 187 15 11 87 71 160
133 74 62 152 127 173 145 22 17 58 48 80 68 23 19 86 73 141 119 55 46 106
90 113 98 17 22 17 493 0 510 -9 9 -80 12 -259 12 l-246 0 -62 -72 c-34 -40
-75 -89 -90 -108 -36 -43 -91 -109 -156 -185 -27 -33 -67 -79 -87 -104 -20
-26 -50 -62 -67 -81 -16 -19 -62 -73 -101 -120 -40 -47 -92 -109 -117 -138
l-44 -52 -52 62 c-46 54 -136 161 -215 254 -15 17 -52 62 -82 99 -30 37 -88
107 -128 154 -40 47 -86 102 -102 121 -16 19 -55 65 -86 103 l-58 67 -246 0
c-178 0 -249 -3 -258 -12z m536 -175 c45 -54 139 -165 207 -248 69 -82 137
-163 151 -180 14 -16 59 -70 101 -120 41 -49 95 -112 119 -140 24 -27 44 -54
44 -60 0 -16 -60 -85 -73 -85 -7 0 -44 32 -82 70 -38 39 -77 70 -86 70 -36 0
-49 -12 -49 -44 0 -25 13 -44 70 -100 39 -38 70 -76 70 -85 0 -9 -14 -31 -31
-49 l-30 -32 -37 27 c-20 15 -50 40 -67 54 -16 15 -70 61 -120 103 -49 41
-103 86 -120 100 -16 14 -97 82 -180 151 -82 68 -194 162 -247 207 l-98 82 0
188 0 188 188 0 188 0 82 -97z m1840 -93 l2 -185 -66 -55 c-36 -30 -116 -98
-179 -150 -62 -52 -148 -124 -191 -160 -43 -36 -90 -75 -104 -86 -14 -12 -47
-41 -75 -64 -27 -23 -66 -55 -85 -71 -48 -41 -187 -158 -306 -257 -124 -103
-156 -130 -274 -231 -120 -104 -123 -105 -145 -81 -17 19 -9 29 309 346 326
327 345 351 314 382 -34 34 -54 17 -385 -314 l-326 -325 -20 20 -20 20 34 39
c19 21 59 69 89 107 30 38 62 76 70 85 8 9 41 47 73 85 32 39 74 88 93 110 18
22 64 76 101 121 152 182 243 290 339 403 55 65 114 136 130 157 16 21 36 46
44 55 8 9 58 66 110 128 l94 111 186 -2 185 -3 3 -185z m-808 -1138 c63 -73
63 -74 43 -93 -19 -20 -20 -20 -91 49 -40 38 -72 73 -72 78 0 14 33 45 45 42
7 -2 40 -36 75 -76z m-123 -108 c74 -77 74 -77 55 -97 -20 -19 -20 -19 -94 43
-113 96 -107 88 -78 110 14 11 29 20 34 20 5 0 43 -34 83 -76z m-725 -24 c64
-47 122 -95 129 -107 8 -12 41 -56 74 -98 33 -42 66 -84 72 -94 11 -15 6 -23
-35 -63 l-47 -46 -100 74 c-115 85 -154 124 -216 212 -24 34 -54 77 -66 94
l-23 31 43 43 c23 23 45 42 48 41 3 -1 58 -40 121 -87z m1194 33 l31 -33 -31
-43 c-124 -175 -144 -198 -215 -248 -31 -22 -80 -57 -109 -78 l-52 -39 -28 28
c-71 72 -71 60 -4 142 32 40 71 92 86 115 15 23 46 54 69 69 23 15 75 54 116
86 81 64 76 64 137 1z m-1362 -301 c3 -5 -1 -9 -9 -9 -8 0 -12 4 -9 9 3 4 7 8
9 8 2 0 6 -4 9 -8z m1381 -12 c10 -11 16 -20 13 -20 -3 0 -13 9 -23 20 -10 11
-16 20 -13 20 3 0 13 -9 23 -20z m-1286 -76 c14 -12 -19 -1 -35 12 -18 14 -18
14 6 3 14 -6 27 -13 29 -15z m-84 -32 c-3 -3 -11 0 -18 7 -9 10 -8 11 6 5 10
-3 15 -9 12 -12z m1260 -2 c10 -11 16 -20 13 -20 -3 0 -13 9 -23 20 -10 11
-16 20 -13 20 3 0 13 -9 23 -20z m90 10 c-3 -5 -12 -10 -18 -10 -7 0 -6 4 3
10 19 12 23 12 15 0z m-1600 -148 c-3 -3 -11 0 -18 7 -9 10 -8 11 6 5 10 -3
15 -9 12 -12z m195 8 c0 -5 -2 -10 -4 -10 -3 0 -8 5 -11 10 -3 6 -1 10 4 10 6
0 11 -4 11 -10z m1660 6 c0 -2 -7 -7 -16 -10 -8 -3 -12 -2 -9 4 6 10 25 14 25
6z m-1700 -50 c0 -2 -8 -10 -17 -17 -16 -13 -17 -12 -4 4 13 16 21 21 21 13z
m-65 -26 c3 -6 -1 -7 -9 -4 -18 7 -21 14 -7 14 6 0 13 -4 16 -10z m1675 6 c0
-2 -7 -7 -16 -10 -8 -3 -12 -2 -9 4 6 10 25 14 25 6z m-1900 -49 c0 -2 -10
-12 -22 -23 l-23 -19 19 23 c18 21 26 27 26 19z m96 -33 c18 -14 18 -14 -6 -3
-31 14 -36 19 -24 19 6 0 19 -7 30 -16z m2045 -1 c13 -16 12 -17 -3 -4 -10 7
-18 15 -18 17 0 8 8 3 21 -13z m-2031 -77 c0 -2 -8 -10 -17 -17 -16 -13 -17
-12 -4 4 13 16 21 21 21 13z m1921 -33 c13 -16 12 -17 -3 -4 -17 13 -22 21
-14 21 2 0 10 -8 17 -17z m-2011 -43 c8 -5 11 -10 5 -10 -5 0 -17 5 -25 10 -8
5 -10 10 -5 10 6 0 17 -5 25 -10z"/>
<path d="M842 1758 c-7 -7 -12 -25 -12 -40 0 -51 81 -50 88 1 7 42 -46 69 -76
39z"/>
<path d="M1666 1754 c-33 -32 -13 -74 36 -74 35 0 52 28 38 64 -11 30 -49 35
-74 10z"/>
</g>
</svg>
